<?xml version="1.0" encoding="us-ascii" standalone="no"?><svg xmlns="http://www.w3.org/2000/svg" xmlns:xlink="http://www.w3.org/1999/xlink" contentStyleType="text/css" height="945px" preserveAspectRatio="none" style="width:544px;height:945px;background:#FFFFFF;" version="1.1" viewBox="0 0 544 945" width="544px" zoomAndPan="magnify"><defs/><g><!--class region--><g id="elem_region"><rect codeLine="17" fill="#F1F1F1" height="63.2422" id="region" rx="2.5" ry="2.5" style="stroke:#181818;stroke-width:0.5;" width="61" x="167.5" y="875"/><text fill="#000000" font-family="sans-serif" font-size="14" lengthAdjust="spacing" textLength="45" x="175.5" y="895.1074">Region</text><line style="stroke:#181818;stroke-width:0.5;" x1="168.5" x2="227.5" y1="903.6211" y2="903.6211"/><ellipse cx="178.5" cy="918.4316" fill="#000000" rx="3" ry="3" style="stroke:#000000;stroke-width:1.0;"/><text fill="#000000" font-family="sans-serif" font-size="14" lengthAdjust="spacing" textLength="35" x="187.5" y="922.7285">name</text><line style="stroke:#181818;stroke-width:0.5;" x1="168.5" x2="227.5" y1="930.2422" y2="930.2422"/></g><!--class area--><g id="elem_area"><rect codeLine="23" fill="#F1F1F1" height="63.2422" id="area" rx="2.5" ry="2.5" style="stroke:#181818;stroke-width:0.5;" width="61" x="167.5" y="733"/><text fill="#000000" font-family="sans-serif" font-size="14" lengthAdjust="spacing" textLength="30" x="183" y="753.1074">Area</text><line style="stroke:#181818;stroke-width:0.5;" x1="168.5" x2="227.5" y1="761.6211" y2="761.6211"/><ellipse cx="178.5" cy="776.4316" fill="#000000" rx="3" ry="3" style="stroke:#000000;stroke-width:1.0;"/><text fill="#000000" font-family="sans-serif" font-size="14" lengthAdjust="spacing" textLength="35" x="187.5" y="780.7285">name</text><line style="stroke:#181818;stroke-width:0.5;" x1="168.5" x2="227.5" y1="788.2422" y2="788.2422"/></g><!--class territory--><g id="elem_territory"><rect codeLine="31" fill="#F1F1F1" height="63.2422" id="territory" rx="2.5" ry="2.5" style="stroke:#181818;stroke-width:0.5;" width="61" x="167.5" y="591"/><text fill="#000000" font-family="sans-serif" font-size="14" lengthAdjust="spacing" textLength="54" x="171" y="611.1074">Territory</text><line style="stroke:#181818;stroke-width:0.5;" x1="168.5" x2="227.5" y1="619.6211" y2="619.6211"/><ellipse cx="178.5" cy="634.4316" fill="#000000" rx="3" ry="3" style="stroke:#000000;stroke-width:1.0;"/><text fill="#000000" font-family="sans-serif" font-size="14" lengthAdjust="spacing" textLength="35" x="187.5" y="638.7285">name</text><line style="stroke:#181818;stroke-width:0.5;" x1="168.5" x2="227.5" y1="646.2422" y2="646.2422"/></g><!--class edu_org--><g id="elem_edu_org"><rect codeLine="43" fill="#F1F1F1" height="81.8633" id="edu_org" rx="2.5" ry="2.5" style="stroke:#181818;stroke-width:0.5;" width="112" x="7" y="430"/><text fill="#000000" font-family="sans-serif" font-size="14" lengthAdjust="spacing" textLength="106" x="10" y="450.1074">Edu organization</text><line style="stroke:#181818;stroke-width:0.5;" x1="8" x2="118" y1="458.6211" y2="458.6211"/><ellipse cx="18" cy="473.4316" fill="#000000" rx="3" ry="3" style="stroke:#000000;stroke-width:1.0;"/><text fill="#000000" font-family="sans-serif" font-size="14" lengthAdjust="spacing" textLength="35" x="27" y="477.7285">name</text><text fill="#000000" font-family="sans-serif" font-size="14" lengthAdjust="spacing" textLength="27" x="27" y="496.3496">type</text><line style="stroke:#181818;stroke-width:0.5;" x1="8" x2="118" y1="503.8633" y2="503.8633"/></g><!--class edu_super--><g id="elem_edu_super"><rect codeLine="50" fill="#F1F1F1" height="63.2422" id="edu_super" rx="2.5" ry="2.5" style="stroke:#181818;stroke-width:0.5;" width="101" x="7.5" y="591"/><text fill="#000000" font-family="sans-serif" font-size="14" lengthAdjust="spacing" textLength="95" x="10.5" y="611.1074">Edu supervisor</text><line style="stroke:#181818;stroke-width:0.5;" x1="8.5" x2="107.5" y1="619.6211" y2="619.6211"/><ellipse cx="18.5" cy="634.4316" fill="#000000" rx="3" ry="3" style="stroke:#000000;stroke-width:1.0;"/><text fill="#000000" font-family="sans-serif" font-size="14" lengthAdjust="spacing" textLength="35" x="27.5" y="638.7285">name</text><line style="stroke:#181818;stroke-width:0.5;" x1="8.5" x2="107.5" y1="646.2422" y2="646.2422"/></g><!--class test_point--><g id="elem_test_point"><rect codeLine="64" fill="#F1F1F1" height="63.2422" id="test_point" rx="2.5" ry="2.5" style="stroke:#181818;stroke-width:0.5;" width="69" x="468.5" y="439.5"/><text fill="#000000" font-family="sans-serif" font-size="14" lengthAdjust="spacing" textLength="63" x="471.5" y="459.6074">Test point</text><line style="stroke:#181818;stroke-width:0.5;" x1="469.5" x2="536.5" y1="468.1211" y2="468.1211"/><ellipse cx="479.5" cy="482.9316" fill="#000000" rx="3" ry="3" style="stroke:#000000;stroke-width:1.0;"/><text fill="#000000" font-family="sans-serif" font-size="14" lengthAdjust="spacing" textLength="35" x="488.5" y="487.2285">name</text><line style="stroke:#181818;stroke-width:0.5;" x1="469.5" x2="536.5" y1="494.7422" y2="494.7422"/></g><!--class subject--><g id="elem_subject"><rect codeLine="79" fill="#F1F1F1" height="81.8633" id="subject" rx="2.5" ry="2.5" style="stroke:#181818;stroke-width:0.5;" width="61" x="291.5" y="430"/><text fill="#000000" font-family="sans-serif" font-size="14" lengthAdjust="spacing" textLength="47" x="298.5" y="450.1074">Subject</text><line style="stroke:#181818;stroke-width:0.5;" x1="292.5" x2="351.5" y1="458.6211" y2="458.6211"/><ellipse cx="302.5" cy="473.4316" fill="#000000" rx="3" ry="3" style="stroke:#000000;stroke-width:1.0;"/><text fill="#000000" font-family="sans-serif" font-size="14" lengthAdjust="spacing" textLength="31" x="311.5" y="477.7285">code</text><text fill="#000000" font-family="sans-serif" font-size="14" lengthAdjust="spacing" textLength="35" x="311.5" y="496.3496">name</text><line style="stroke:#181818;stroke-width:0.5;" x1="292.5" x2="351.5" y1="503.8633" y2="503.8633"/></g><!--class test_pass--><g id="elem_test_pass"><rect codeLine="86" fill="#F1F1F1" height="182.9688" id="test_pass" rx="2.5" ry="2.5" style="stroke:#181818;stroke-width:0.5;" width="89" x="274.5" y="168"/><text fill="#000000" font-family="sans-serif" font-size="14" lengthAdjust="spacing" textLength="62" x="288" y="188.1074">Test pass</text><line style="stroke:#181818;stroke-width:0.5;" x1="275.5" x2="362.5" y1="196.6211" y2="196.6211"/><ellipse cx="285.5" cy="211.4316" fill="#000000" rx="3" ry="3" style="stroke:#000000;stroke-width:1.0;"/><text fill="#000000" font-family="sans-serif" font-size="14" lengthAdjust="spacing" textLength="38" x="294.5" y="215.7285">status</text><line style="stroke:#181818;stroke-width:1.0;stroke-dasharray:1.0,2.0;" x1="275.5" x2="362.5" y1="223.2422" y2="223.2422"/><text fill="#000000" font-family="sans-serif" font-size="14" lengthAdjust="spacing" textLength="61" x="280.5" y="242.3496">dpa_level</text><text fill="#000000" font-family="sans-serif" font-size="14" lengthAdjust="spacing" textLength="58" x="280.5" y="260.9707">test_lang</text><text fill="#000000" font-family="sans-serif" font-size="14" lengthAdjust="spacing" textLength="77" x="280.5" y="279.5918">adapt_scale</text><line style="stroke:#181818;stroke-width:1.0;stroke-dasharray:1.0,2.0;" x1="275.5" x2="362.5" y1="287.1055" y2="287.1055"/><text fill="#000000" font-family="sans-serif" font-size="14" lengthAdjust="spacing" textLength="35" x="280.5" y="306.2129">score</text><text fill="#000000" font-family="sans-serif" font-size="14" lengthAdjust="spacing" textLength="59" x="280.5" y="324.834">score_12</text><text fill="#000000" font-family="sans-serif" font-size="14" lengthAdjust="spacing" textLength="67" x="280.5" y="343.4551">score_100</text></g><!--class examinee_data--><g id="elem_examinee_data"><rect codeLine="109" fill="#F1F1F1" height="164.3477" id="examinee_data" rx="2.5" ry="2.5" style="stroke:#181818;stroke-width:0.5;" width="131" x="108.5" y="177.5"/><text fill="#000000" font-family="sans-serif" font-size="14" lengthAdjust="spacing" textLength="93" x="127.5" y="197.6074">Examinee data</text><line style="stroke:#181818;stroke-width:0.5;" x1="109.5" x2="238.5" y1="206.1211" y2="206.1211"/><text fill="#000000" font-family="sans-serif" font-size="14" lengthAdjust="spacing" textLength="21" x="114.5" y="225.2285">sex</text><text fill="#000000" font-family="sans-serif" font-size="14" lengthAdjust="spacing" textLength="28" x="114.5" y="243.8496">birth</text><line style="stroke:#181818;stroke-width:1.0;stroke-dasharray:1.0,2.0;" x1="109.5" x2="238.5" y1="251.3633" y2="251.3633"/><text fill="#000000" font-family="sans-serif" font-size="14" lengthAdjust="spacing" textLength="119" x="114.5" y="270.4707">residence_terrtype</text><line style="stroke:#181818;stroke-width:1.0;stroke-dasharray:1.0,2.0;" x1="109.5" x2="238.5" y1="277.9844" y2="277.9844"/><text fill="#000000" font-family="sans-serif" font-size="14" lengthAdjust="spacing" textLength="70" x="114.5" y="297.0918">edu_status</text><text fill="#000000" font-family="sans-serif" font-size="14" lengthAdjust="spacing" textLength="59" x="114.5" y="315.7129">edu_lang</text><text fill="#000000" font-family="sans-serif" font-size="14" lengthAdjust="spacing" textLength="71" x="114.5" y="334.334">edu_profile</text></g><!--class record--><g id="elem_record"><rect codeLine="125" fill="#F1F1F1" height="81.8633" id="record" rx="2.5" ry="2.5" style="stroke:#181818;stroke-width:0.5;" width="54" x="170" y="7"/><text fill="#000000" font-family="sans-serif" font-size="14" lengthAdjust="spacing" textLength="46" x="174" y="27.1074">Record</text><line style="stroke:#181818;stroke-width:0.5;" x1="171" x2="223" y1="35.6211" y2="35.6211"/><ellipse cx="181" cy="50.4316" fill="#000000" rx="3" ry="3" style="stroke:#000000;stroke-width:1.0;"/><text fill="#000000" font-family="sans-serif" font-size="14" lengthAdjust="spacing" textLength="11" x="190" y="54.7285">id</text><text fill="#000000" font-family="sans-serif" font-size="14" lengthAdjust="spacing" textLength="28" x="190" y="73.3496">year</text><line style="stroke:#181818;stroke-width:0.5;" x1="171" x2="223" y1="80.8633" y2="80.8633"/></g><!--link area to region--><g id="link_area_region"><path codeLine="28" d="M198,814.22 C198,837.57 198,843.52 198,866.85 " fill="none" id="area-region" style="stroke:#181818;stroke-width:1.0;"/><line style="stroke:#181818;stroke-width:1.0;" x1="198" x2="192" y1="804.22" y2="796.22"/><line style="stroke:#181818;stroke-width:1.0;" x1="198" x2="204" y1="804.22" y2="796.22"/><line style="stroke:#181818;stroke-width:1.0;" x1="198" x2="198" y1="804.22" y2="796.22"/><ellipse cx="198" cy="810.22" fill="none" rx="4" ry="4" style="stroke:#181818;stroke-width:1.0;"/><line style="stroke:#181818;stroke-width:1.0;" x1="202" x2="194" y1="870.85" y2="870.85"/><line style="stroke:#181818;stroke-width:1.0;" x1="202" x2="194" y1="867.85" y2="867.85"/><line style="stroke:#181818;stroke-width:1.0;" x1="198" x2="198" y1="866.85" y2="874.85"/><text fill="#000000" font-family="sans-serif" font-size="13" lengthAdjust="spacing" textLength="35" x="199" y="841.0283">region</text></g><!--link territory to area--><g id="link_territory_area"><path codeLine="36" d="M198,672.22 C198,695.57 198,701.52 198,724.85 " fill="none" id="territory-area" style="stroke:#181818;stroke-width:1.0;"/><line style="stroke:#181818;stroke-width:1.0;" x1="198" x2="192" y1="662.22" y2="654.22"/><line style="stroke:#181818;stroke-width:1.0;" x1="198" x2="204" y1="662.22" y2="654.22"/><line style="stroke:#181818;stroke-width:1.0;" x1="198" x2="198" y1="662.22" y2="654.22"/><ellipse cx="198" cy="668.22" fill="none" rx="4" ry="4" style="stroke:#181818;stroke-width:1.0;"/><line style="stroke:#181818;stroke-width:1.0;" x1="202" x2="194" y1="728.85" y2="728.85"/><line style="stroke:#181818;stroke-width:1.0;" x1="202" x2="194" y1="725.85" y2="725.85"/><line style="stroke:#181818;stroke-width:1.0;" x1="198" x2="198" y1="724.85" y2="732.85"/><text fill="#000000" font-family="sans-serif" font-size="13" lengthAdjust="spacing" textLength="25" x="199" y="699.0283">area</text></g><!--link edu_org to edu_super--><g id="link_edu_org_edu_super"><path codeLine="55" d="M47.3403,529.7065 C44.0603,544.9365 45.55,544.9 47,561 C47.88,570.78 46.7932,566.6055 48.5732,576.1255 " fill="none" id="edu_org-edu_super" style="stroke:#181818;stroke-width:1.0;"/><line style="stroke:#181818;stroke-width:1.0;" x1="49.4457" x2="45.2645" y1="519.9307" y2="510.8468"/><line style="stroke:#181818;stroke-width:1.0;" x1="49.4457" x2="56.9955" y1="519.9307" y2="513.3732"/><line style="stroke:#181818;stroke-width:1.0;" x1="49.4457" x2="51.13" y1="519.9307" y2="512.11"/><ellipse cx="48.1825" cy="525.7962" fill="none" rx="4" ry="4" style="stroke:#181818;stroke-width:1.0;"/><line style="stroke:#181818;stroke-width:1.0;" x1="49.3083" x2="51.33" y1="580.0574" y2="590.87"/><ellipse cx="49.3083" cy="580.0574" fill="none" rx="4" ry="4" style="stroke:#181818;stroke-width:1.0;"/><line style="stroke:#181818;stroke-width:1.0;" x1="54.5267" x2="46.663" y1="586.203" y2="587.6733"/><text fill="#000000" font-family="sans-serif" font-size="13" lengthAdjust="spacing" textLength="36" x="48" y="557.0283">parent</text></g><!--link edu_org to territory--><g id="link_edu_org_territory"><path codeLine="56" d="M97.6737,527.2641 C108.2637,543.1741 111.36,546.17 125,561 C137.7,574.81 141.7683,579.0614 155.4583,589.8014 " fill="none" id="edu_org-territory" style="stroke:#181818;stroke-width:1.0;"/><line style="stroke:#181818;stroke-width:1.0;" x1="92.1328" x2="82.7053" y1="518.9396" y2="515.6046"/><line style="stroke:#181818;stroke-width:1.0;" x1="92.1328" x2="92.6947" y1="518.9396" y2="508.9554"/><line style="stroke:#181818;stroke-width:1.0;" x1="92.1328" x2="87.7" y1="518.9396" y2="512.28"/><ellipse cx="95.4573" cy="523.9343" fill="none" rx="4" ry="4" style="stroke:#181818;stroke-width:1.0;"/><line style="stroke:#181818;stroke-width:1.0;" x1="158.6055" x2="167.26" y1="592.2704" y2="599.06"/><ellipse cx="158.6055" cy="592.2704" fill="none" rx="4" ry="4" style="stroke:#181818;stroke-width:1.0;"/><line style="stroke:#181818;stroke-width:1.0;" x1="166.5818" x2="161.6439" y1="593.4439" y2="599.7382"/><text fill="#000000" font-family="sans-serif" font-size="13" lengthAdjust="spacing" textLength="45" x="126" y="557.0283">location</text></g><!--link test_point to territory--><g id="link_test_point_territory"><path codeLine="69" d="M467.2515,515.8492 C461.3915,522.1692 466.99,515.16 460,520 C385.17,571.74 294.889,598.39 243.469,610.99 " fill="none" id="test_point-territory" style="stroke:#181818;stroke-width:1.0;"/><line style="stroke:#181818;stroke-width:1.0;" x1="474.0507" x2="475.0903" y1="508.5163" y2="498.5705"/><line style="stroke:#181818;stroke-width:1.0;" x1="474.0507" x2="483.8897" y1="508.5163" y2="506.7295"/><line style="stroke:#181818;stroke-width:1.0;" x1="474.0507" x2="479.49" y1="508.5163" y2="502.65"/><ellipse cx="469.9712" cy="512.916" fill="none" rx="4" ry="4" style="stroke:#181818;stroke-width:1.0;"/><line style="stroke:#181818;stroke-width:1.0;" x1="239.5839" x2="228.9" y1="611.942" y2="614.56"/><ellipse cx="239.5839" cy="611.942" fill="none" rx="4" ry="4" style="stroke:#181818;stroke-width:1.0;"/><line style="stroke:#181818;stroke-width:1.0;" x1="233.7371" x2="231.8331" y1="617.4931" y2="609.7229"/><text fill="#000000" font-family="sans-serif" font-size="13" lengthAdjust="spacing" textLength="45" x="421" y="557.0283">location</text></g><!--link test_pass to subject--><g id="link_test_pass_subject"><path codeLine="99" d="M320.4133,359.1692 C320.8033,386.7092 320.9957,399.5608 321.3157,421.9508 " fill="none" id="test_pass-subject" style="stroke:#181818;stroke-width:1.0;"/><line style="stroke:#181818;stroke-width:1.0;" x1="316.357" x2="324.3562" y1="355.2262" y2="355.113"/><line style="stroke:#181818;stroke-width:1.0;" x1="316.3995" x2="324.3987" y1="358.2259" y2="358.1127"/><line style="stroke:#181818;stroke-width:1.0;" x1="320.4133" x2="320.3" y1="359.1692" y2="351.17"/><line style="stroke:#181818;stroke-width:1.0;" x1="325.3724" x2="317.3732" y1="425.8932" y2="426.0076"/><line style="stroke:#181818;stroke-width:1.0;" x1="325.3296" x2="317.3304" y1="422.8936" y2="423.0079"/><line style="stroke:#181818;stroke-width:1.0;" x1="321.3157" x2="321.43" y1="421.9508" y2="429.95"/><text fill="#000000" font-family="sans-serif" font-size="13" lengthAdjust="spacing" textLength="42" x="321" y="396.0283">subject</text></g><!--link test_pass to test_pass--><g id="link_test_pass_test_pass"><path codeLine="100" d="M381.4669,233.6519 C400.3369,231.8319 398.5,241.6 398.5,259.5 C398.5,277.4 397.3507,286.8801 378.4807,285.0601 " fill="none" id="test_pass-test_pass" style="stroke:#181818;stroke-width:1.0;"/><line style="stroke:#181818;stroke-width:1.0;" x1="371.513" x2="364.126" y1="234.612" y2="241.3523"/><line style="stroke:#181818;stroke-width:1.0;" x1="371.513" x2="362.974" y1="234.612" y2="229.4077"/><line style="stroke:#181818;stroke-width:1.0;" x1="371.513" x2="363.55" y1="234.612" y2="235.38"/><ellipse cx="377.4853" cy="234.0359" fill="none" rx="4" ry="4" style="stroke:#181818;stroke-width:1.0;"/><line style="stroke:#181818;stroke-width:1.0;" x1="374.4992" x2="363.55" y1="284.676" y2="283.62"/><ellipse cx="374.4992" cy="284.676" fill="none" rx="4" ry="4" style="stroke:#181818;stroke-width:1.0;"/><line style="stroke:#181818;stroke-width:1.0;" x1="367.1475" x2="367.9155" y1="287.9855" y2="280.0225"/><text fill="#000000" font-family="sans-serif" font-size="13" lengthAdjust="spacing" textLength="50" x="404.5" y="265.0283">sub_test</text></g><!--link test_pass to test_point--><g id="link_test_pass_test_point"><path codeLine="101" d="M375.4173,324.7352 C410.5173,364.7052 436.5309,394.3203 466.0709,427.9503 " fill="none" id="test_pass-test_point" style="stroke:#181818;stroke-width:1.0;"/><line style="stroke:#181818;stroke-width:1.0;" x1="368.8188" x2="359.0316" y1="317.2212" y2="315.1691"/><line style="stroke:#181818;stroke-width:1.0;" x1="368.8188" x2="368.0484" y1="317.2212" y2="307.2509"/><line style="stroke:#181818;stroke-width:1.0;" x1="368.8188" x2="363.54" y1="317.2212" y2="311.21"/><ellipse cx="372.7779" cy="321.7296" fill="none" rx="4" ry="4" style="stroke:#181818;stroke-width:1.0;"/><line style="stroke:#181818;stroke-width:1.0;" x1="468.7106" x2="475.97" y1="430.9555" y2="439.22"/><ellipse cx="468.7106" cy="430.9555" fill="none" rx="4" ry="4" style="stroke:#181818;stroke-width:1.0;"/><line style="stroke:#181818;stroke-width:1.0;" x1="476.3355" x2="470.325" y1="433.575" y2="438.8545"/><text fill="#000000" font-family="sans-serif" font-size="13" lengthAdjust="spacing" textLength="28" x="439" y="396.0283">point</text></g><!--link examinee_data to territory--><g id="link_examinee_data_territory"><path codeLine="121" d="M180.5823,359.4805 C185.8123,438.2605 191.3173,520.8929 194.9473,575.6229 " fill="none" id="examinee_data-territory" style="stroke:#181818;stroke-width:1.0;"/><line style="stroke:#181818;stroke-width:1.0;" x1="179.9199" x2="173.4032" y1="349.5024" y2="341.9174"/><line style="stroke:#181818;stroke-width:1.0;" x1="179.9199" x2="185.3768" y1="349.5024" y2="341.1226"/><line style="stroke:#181818;stroke-width:1.0;" x1="179.9199" x2="179.39" y1="349.5024" y2="341.52"/><ellipse cx="180.3174" cy="355.4893" fill="none" rx="4" ry="4" style="stroke:#181818;stroke-width:1.0;"/><line style="stroke:#181818;stroke-width:1.0;" x1="195.212" x2="195.94" y1="579.6141" y2="590.59"/><ellipse cx="195.212" cy="579.6141" fill="none" rx="4" ry="4" style="stroke:#181818;stroke-width:1.0;"/><line style="stroke:#181818;stroke-width:1.0;" x1="199.6665" x2="191.684" y1="586.334" y2="586.8635"/><text fill="#000000" font-family="sans-serif" font-size="13" lengthAdjust="spacing" textLength="56" x="192" y="476.5283">residence</text></g><!--link examinee_data to edu_org--><g id="link_examinee_data_edu_org"><path codeLine="122" d="M122.5017,357.7049 C106.4717,387.9549 104.431,391.7946 91.221,416.7346 " fill="none" id="examinee_data-edu_org" style="stroke:#181818;stroke-width:1.0;"/><line style="stroke:#181818;stroke-width:1.0;" x1="127.1841" x2="125.6284" y1="348.8688" y2="338.9906"/><line style="stroke:#181818;stroke-width:1.0;" x1="127.1841" x2="136.2316" y1="348.8688" y2="344.6094"/><line style="stroke:#181818;stroke-width:1.0;" x1="127.1841" x2="130.93" y1="348.8688" y2="341.8"/><ellipse cx="124.3747" cy="354.1704" fill="none" rx="4" ry="4" style="stroke:#181818;stroke-width:1.0;"/><line style="stroke:#181818;stroke-width:1.0;" x1="89.3487" x2="84.2" y1="420.2694" y2="429.99"/><ellipse cx="89.3487" cy="420.2694" fill="none" rx="4" ry="4" style="stroke:#181818;stroke-width:1.0;"/><line style="stroke:#181818;stroke-width:1.0;" x1="89.607" x2="82.5375" y1="428.3275" y2="424.583"/><text fill="#000000" font-family="sans-serif" font-size="13" lengthAdjust="spacing" textLength="46" x="110" y="396.0283">edu_org</text></g><!--link record to examinee_data--><g id="link_record_examinee_data"><path codeLine="131" d="M191.6942,97.3419 C188.9442,122.3119 187.8464,132.3895 184.5364,162.5495 " fill="none" id="record-examinee_data" style="stroke:#181818;stroke-width:1.0;"/><line style="stroke:#181818;stroke-width:1.0;" x1="188.1562" x2="196.1081" y1="92.9281" y2="93.8038"/><line style="stroke:#181818;stroke-width:1.0;" x1="187.8277" x2="195.7797" y1="95.91" y2="96.7858"/><line style="stroke:#181818;stroke-width:1.0;" x1="191.6942" x2="192.57" y1="97.3419" y2="89.39"/><line style="stroke:#181818;stroke-width:1.0;" x1="184.1" x2="182.9" y1="166.5257" y2="177.46"/><ellipse cx="184.1" cy="166.5257" fill="none" rx="4" ry="4" style="stroke:#181818;stroke-width:1.0;"/><line style="stroke:#181818;stroke-width:1.0;" x1="187.3125" x2="179.3602" y1="173.9202" y2="173.0475"/><text fill="#000000" font-family="sans-serif" font-size="13" lengthAdjust="spacing" textLength="56" x="189" y="134.0283">examinee</text></g><!--link record to test_pass--><g id="link_record_test_pass"><path codeLine="132" d="M229.4242,85.2384 C239.4742,97.1684 245.35,105.19 254,119 C263.58,134.28 264.7144,135.039 272.8444,151.669 " fill="none" id="record-test_pass" style="stroke:#181818;stroke-width:1.0;"/><line style="stroke:#181818;stroke-width:1.0;" x1="223.7879" x2="229.9063" y1="84.7563" y2="79.6021"/><line style="stroke:#181818;stroke-width:1.0;" x1="225.7207" x2="231.8391" y1="87.0507" y2="81.8965"/><line style="stroke:#181818;stroke-width:1.0;" x1="229.4242" x2="224.27" y1="85.2384" y2="79.12"/><line style="stroke:#181818;stroke-width:1.0;" x1="277.2364" x2="286.1403" y1="160.6529" y2="165.2048"/><line style="stroke:#181818;stroke-width:1.0;" x1="277.2364" x2="275.3597" y1="160.6529" y2="170.4752"/><line style="stroke:#181818;stroke-width:1.0;" x1="277.2364" x2="280.75" y1="160.6529" y2="167.84"/><ellipse cx="274.6012" cy="155.2626" fill="none" rx="4" ry="4" style="stroke:#181818;stroke-width:1.0;"/><text fill="#000000" font-family="sans-serif" font-size="13" lengthAdjust="spacing" textLength="29" x="265" y="134.0283">tests</text></g><!--SRC=[ZLN1Rjim3BtxAuGUbcs0Ysv7tmgqvmrTiAkXMgp3mP4CIWwQ9VdtIR8iMtQSpcW3YtmY7nyfUSFod3qXhudlcGPZKDOwopRERFz-e-vu4ntkfMkTUuS264Y3viYmKb9dtb8XLGraVG3tiEqEIUGj9mlqU0GzSRl_Hx57YTeGDtY0V0j4Q1IXJIpmW1gLp8ogmUo0s2dBc7qsZA1s3hS8FEvUlEcESJtrdlolUxuooVVWbvSq3EC4F8drQ0q-KlJSYkD0xABo_7mU8XO3Xv38GqoexPZa6Ye- -eGfvbRMY1nI-nn5J_cIpMH-5brb5LRIwggevXB_-gLcAD_KLE6UCApW4-esQEBq5TYTfJMky_VaZ-si5Mi9cUvQ83i8YjZdZHqbctppPK5ZH4KItlIXZ86k5r6TnurMoJxPDTIeVS4QrVDUQhu5xGuEQnLAinGw56wcgDbaQDERmsXeKuwesxCnGF-VyK_2FQVLS_ghU_q3bM6V-kXM7Ar7xFMoR5VwJNr5IN4Xdgyim1PbLKgC8xCylICF9otjbmEw7H0J0UrgaKWRRZeT3VVtyLMql6pW0CqukYvAmsKTBLpmrfIwuWrS2w4hHP2koc_VvuQ7XsK3NMddip_SWv958jO8YsqU31vOklKjf1-H8ipUOe1Vm78JjkNmpkqj3S04D_nMroDmhIFFqqZzKGsMqbbcdT7m7jzVaSpkchu4sdvzP0Mb6_9uiynG_c2dRNQcf97Eq99wmoQz8gOChnseo60TFbmWHRmVWs8_Mf1F3aXUxDadpPd29orwfuEB8YwEm6dAkj_XvyVbJqWLSRs0df8PSk_Q3iO_]--></g></svg>