<?xml version="1.0" encoding="us-ascii" standalone="no"?><svg xmlns="http://www.w3.org/2000/svg" xmlns:xlink="http://www.w3.org/1999/xlink" contentStyleType="text/css" height="1030.4px" preserveAspectRatio="none" style="width:1104px;height:1030px;background:#FFFFFF;" version="1.1" viewBox="0 0 1104 1030" width="1104.6px" zoomAndPan="magnify"><defs/><g><!--class regions--><g id="elem_regions"><rect codeLine="31" fill="#F1F1F1" height="57.3043" id="regions" rx="1.75" ry="1.75" style="stroke:#181818;stroke-width:0.3499999999999999;" width="179.9" x="120.407" y="968.8"/><text fill="#000000" font-family="sans-serif" font-size="9.8" lengthAdjust="spacing" textLength="32.9" x="193.907" y="982.8752">regions</text><line style="stroke:#181818;stroke-width:0.3499999999999999;" x1="121.107" x2="299.607" y1="988.8348" y2="988.8348"/><ellipse cx="128.107" cy="999.2021" fill="#000000" rx="2.1" ry="2.1" style="stroke:#000000;stroke-width:0.6999999999999998;"/><text fill="#000000" font-family="sans-serif" font-size="9.8" font-weight="bold" lengthAdjust="spacing" textLength="46.9" x="137.207" y="1002.21">region_id</text><text fill="#000000" font-family="sans-serif" font-size="9.8" lengthAdjust="spacing" textLength="109.2" x="186.907" y="1002.21">: INT &#171;PK&#187;, &#171;generated&#187;</text><line style="stroke:#181818;stroke-width:0.6999999999999998;" x1="121.107" x2="299.607" y1="1007.4695" y2="1007.4695"/><ellipse cx="128.107" cy="1017.8369" fill="#000000" rx="2.1" ry="2.1" style="stroke:#000000;stroke-width:0.6999999999999998;"/><text fill="#000000" font-family="sans-serif" font-size="9.8" lengthAdjust="spacing" textLength="109.9" x="134.407" y="1020.8447">region_name: VARCHAR</text></g><!--class areas--><g id="elem_areas"><rect codeLine="39" fill="#F1F1F1" height="70.3391" id="areas" rx="1.75" ry="1.75" style="stroke:#181818;stroke-width:0.3499999999999999;" width="169.4" x="125.657" y="854"/><text fill="#000000" font-family="sans-serif" font-size="9.8" lengthAdjust="spacing" textLength="25.2" x="197.757" y="868.0752">areas</text><line style="stroke:#181818;stroke-width:0.3499999999999999;" x1="126.357" x2="294.357" y1="874.0348" y2="874.0348"/><ellipse cx="133.357" cy="884.4021" fill="#000000" rx="2.1" ry="2.1" style="stroke:#000000;stroke-width:0.6999999999999998;"/><text fill="#000000" font-family="sans-serif" font-size="9.8" font-weight="bold" lengthAdjust="spacing" textLength="36.4" x="142.457" y="887.41">area_id</text><text fill="#000000" font-family="sans-serif" font-size="9.8" lengthAdjust="spacing" textLength="109.2" x="181.657" y="887.41">: INT &#171;PK&#187;, &#171;generated&#187;</text><line style="stroke:#181818;stroke-width:0.6999999999999998;" x1="126.357" x2="294.357" y1="892.6695" y2="892.6695"/><ellipse cx="133.357" cy="903.0369" fill="#000000" rx="2.1" ry="2.1" style="stroke:#000000;stroke-width:0.6999999999999998;"/><text fill="#000000" font-family="sans-serif" font-size="9.8" lengthAdjust="spacing" textLength="88.2" x="139.657" y="906.0447">region_id: INT &#171;FK&#187;</text><ellipse cx="133.357" cy="916.0717" fill="#000000" rx="2.1" ry="2.1" style="stroke:#000000;stroke-width:0.6999999999999998;"/><text fill="#000000" font-family="sans-serif" font-size="9.8" lengthAdjust="spacing" textLength="102.2" x="139.657" y="919.0795">area_name: VARCHAR</text></g><!--class territories--><g id="elem_territories"><rect codeLine="50" fill="#F1F1F1" height="70.3391" id="territories" rx="1.75" ry="1.75" style="stroke:#181818;stroke-width:0.3499999999999999;" width="165.9" x="126.707" y="736.4"/><text fill="#000000" font-family="sans-serif" font-size="9.8" lengthAdjust="spacing" textLength="42" x="188.657" y="750.4752">territories</text><line style="stroke:#181818;stroke-width:0.3499999999999999;" x1="127.407" x2="291.907" y1="756.4348" y2="756.4348"/><ellipse cx="134.407" cy="766.8021" fill="#000000" rx="2.1" ry="2.1" style="stroke:#000000;stroke-width:0.6999999999999998;"/><text fill="#000000" font-family="sans-serif" font-size="9.8" font-weight="bold" lengthAdjust="spacing" textLength="32.9" x="143.507" y="769.81">terr_id</text><text fill="#000000" font-family="sans-serif" font-size="9.8" lengthAdjust="spacing" textLength="109.2" x="179.207" y="769.81">: INT &#171;PK&#187;, &#171;generated&#187;</text><line style="stroke:#181818;stroke-width:0.6999999999999998;" x1="127.407" x2="291.907" y1="775.0695" y2="775.0695"/><ellipse cx="134.407" cy="785.4369" fill="#000000" rx="2.1" ry="2.1" style="stroke:#000000;stroke-width:0.6999999999999998;"/><text fill="#000000" font-family="sans-serif" font-size="9.8" lengthAdjust="spacing" textLength="80.5" x="140.707" y="788.4447">area_id: INT &#171;FK&#187;</text><ellipse cx="134.407" cy="798.4717" fill="#000000" rx="2.1" ry="2.1" style="stroke:#000000;stroke-width:0.6999999999999998;"/><text fill="#000000" font-family="sans-serif" font-size="9.8" lengthAdjust="spacing" textLength="97.3" x="140.707" y="801.4795">terr_name: VARCHAR</text></g><!--class edu_langs--><g id="elem_edu_langs"><rect codeLine="66" fill="#F1F1F1" height="57.3043" id="edu_langs" rx="1.75" ry="1.75" style="stroke:#181818;stroke-width:0.3499999999999999;" width="168.7" x="914.207" y="612.15"/><text fill="#000000" font-family="sans-serif" font-size="9.8" lengthAdjust="spacing" textLength="46.2" x="975.457" y="626.2252">edu_langs</text><line style="stroke:#181818;stroke-width:0.3499999999999999;" x1="914.907" x2="1082.207" y1="632.1848" y2="632.1848"/><ellipse cx="921.907" cy="642.5521" fill="#000000" rx="2.1" ry="2.1" style="stroke:#000000;stroke-width:0.6999999999999998;"/><text fill="#000000" font-family="sans-serif" font-size="9.8" font-weight="bold" lengthAdjust="spacing" textLength="35.7" x="931.007" y="645.56">lang_id</text><text fill="#000000" font-family="sans-serif" font-size="9.8" lengthAdjust="spacing" textLength="109.2" x="969.507" y="645.56">: INT &#171;PK&#187;, &#171;generated&#187;</text><line style="stroke:#181818;stroke-width:0.6999999999999998;" x1="914.907" x2="1082.207" y1="650.8195" y2="650.8195"/><ellipse cx="921.907" cy="661.1869" fill="#000000" rx="2.1" ry="2.1" style="stroke:#000000;stroke-width:0.6999999999999998;"/><text fill="#000000" font-family="sans-serif" font-size="9.8" lengthAdjust="spacing" textLength="100.8" x="928.207" y="664.1947">lang_name: VARCHAR</text></g><!--class edu_profiles--><g id="elem_edu_profiles"><rect codeLine="74" fill="#F1F1F1" height="57.3043" id="edu_profiles" rx="1.75" ry="1.75" style="stroke:#181818;stroke-width:0.3499999999999999;" width="179.9" x="709.807" y="612.15"/><text fill="#000000" font-family="sans-serif" font-size="9.8" lengthAdjust="spacing" textLength="54.6" x="772.457" y="626.2252">edu_profiles</text><line style="stroke:#181818;stroke-width:0.3499999999999999;" x1="710.507" x2="889.007" y1="632.1848" y2="632.1848"/><ellipse cx="717.507" cy="642.5521" fill="#000000" rx="2.1" ry="2.1" style="stroke:#000000;stroke-width:0.6999999999999998;"/><text fill="#000000" font-family="sans-serif" font-size="9.8" font-weight="bold" lengthAdjust="spacing" textLength="46.9" x="726.607" y="645.56">profile_id</text><text fill="#000000" font-family="sans-serif" font-size="9.8" lengthAdjust="spacing" textLength="109.2" x="776.307" y="645.56">: INT &#171;PK&#187;, &#171;generated&#187;</text><line style="stroke:#181818;stroke-width:0.6999999999999998;" x1="710.507" x2="889.007" y1="650.8195" y2="650.8195"/><ellipse cx="717.507" cy="661.1869" fill="#000000" rx="2.1" ry="2.1" style="stroke:#000000;stroke-width:0.6999999999999998;"/><text fill="#000000" font-family="sans-serif" font-size="9.8" lengthAdjust="spacing" textLength="109.2" x="723.807" y="664.1947">profile_name: VARCHAR</text></g><!--class edu_orgtypes--><g id="elem_edu_orgtypes"><rect codeLine="87" fill="#F1F1F1" height="57.3043" id="edu_orgtypes" rx="1.75" ry="1.75" style="stroke:#181818;stroke-width:0.3499999999999999;" width="168.7" x="322.707" y="742.7"/><text fill="#000000" font-family="sans-serif" font-size="9.8" lengthAdjust="spacing" textLength="60.9" x="376.607" y="756.7752">edu_orgtypes</text><line style="stroke:#181818;stroke-width:0.3499999999999999;" x1="323.407" x2="490.707" y1="762.7348" y2="762.7348"/><ellipse cx="330.407" cy="773.1021" fill="#000000" rx="2.1" ry="2.1" style="stroke:#000000;stroke-width:0.6999999999999998;"/><text fill="#000000" font-family="sans-serif" font-size="9.8" font-weight="bold" lengthAdjust="spacing" textLength="35.7" x="339.507" y="776.11">type_id</text><text fill="#000000" font-family="sans-serif" font-size="9.8" lengthAdjust="spacing" textLength="109.2" x="378.007" y="776.11">: INT &#171;PK&#187;, &#171;generated&#187;</text><line style="stroke:#181818;stroke-width:0.6999999999999998;" x1="323.407" x2="490.707" y1="781.3695" y2="781.3695"/><ellipse cx="330.407" cy="791.7369" fill="#000000" rx="2.1" ry="2.1" style="stroke:#000000;stroke-width:0.6999999999999998;"/><text fill="#000000" font-family="sans-serif" font-size="9.8" lengthAdjust="spacing" textLength="100.8" x="336.707" y="794.7447">type_name: VARCHAR</text></g><!--class edu_supers--><g id="elem_edu_supers"><rect codeLine="95" fill="#F1F1F1" height="57.3043" id="edu_supers" rx="1.75" ry="1.75" style="stroke:#181818;stroke-width:0.3499999999999999;" width="176.4" x="516.257" y="742.7"/><text fill="#000000" font-family="sans-serif" font-size="9.8" lengthAdjust="spacing" textLength="52.5" x="578.207" y="756.7752">edu_supers</text><line style="stroke:#181818;stroke-width:0.3499999999999999;" x1="516.957" x2="691.957" y1="762.7348" y2="762.7348"/><ellipse cx="523.957" cy="773.1021" fill="#000000" rx="2.1" ry="2.1" style="stroke:#000000;stroke-width:0.6999999999999998;"/><text fill="#000000" font-family="sans-serif" font-size="9.8" font-weight="bold" lengthAdjust="spacing" textLength="43.4" x="533.057" y="776.11">super_id</text><text fill="#000000" font-family="sans-serif" font-size="9.8" lengthAdjust="spacing" textLength="109.2" x="579.257" y="776.11">: INT &#171;PK&#187;, &#171;generated&#187;</text><line style="stroke:#181818;stroke-width:0.6999999999999998;" x1="516.957" x2="691.957" y1="781.3695" y2="781.3695"/><ellipse cx="523.957" cy="791.7369" fill="#000000" rx="2.1" ry="2.1" style="stroke:#000000;stroke-width:0.6999999999999998;"/><text fill="#000000" font-family="sans-serif" font-size="9.8" lengthAdjust="spacing" textLength="107.1" x="530.257" y="794.7447">super_name: VARCHAR</text></g><!--class edu_orgs--><g id="elem_edu_orgs"><rect codeLine="103" fill="#F1F1F1" height="96.4086" id="edu_orgs" rx="1.75" ry="1.75" style="stroke:#181818;stroke-width:0.3499999999999999;" width="164.5" x="406.707" y="592.9"/><text fill="#000000" font-family="sans-serif" font-size="9.8" lengthAdjust="spacing" textLength="42" x="467.957" y="606.9752">edu_orgs</text><line style="stroke:#181818;stroke-width:0.3499999999999999;" x1="407.407" x2="570.507" y1="612.9348" y2="612.9348"/><ellipse cx="414.407" cy="623.3021" fill="#000000" rx="2.1" ry="2.1" style="stroke:#000000;stroke-width:0.6999999999999998;"/><text fill="#000000" font-family="sans-serif" font-size="9.8" font-weight="bold" lengthAdjust="spacing" textLength="31.5" x="423.507" y="626.31">org_id</text><text fill="#000000" font-family="sans-serif" font-size="9.8" lengthAdjust="spacing" textLength="109.2" x="457.807" y="626.31">: INT &#171;PK&#187;, &#171;generated&#187;</text><line style="stroke:#181818;stroke-width:0.6999999999999998;" x1="407.407" x2="570.507" y1="631.5695" y2="631.5695"/><ellipse cx="414.407" cy="641.9369" fill="#000000" rx="2.1" ry="2.1" style="stroke:#000000;stroke-width:0.6999999999999998;"/><text fill="#000000" font-family="sans-serif" font-size="9.8" lengthAdjust="spacing" textLength="96.6" x="420.707" y="644.9447">org_name: VARCHAR</text><text fill="#000000" font-family="sans-serif" font-size="9.8" lengthAdjust="spacing" textLength="115.5" x="420.707" y="657.9795">location_terr_id: INT &#171;FK&#187;</text><text fill="#000000" font-family="sans-serif" font-size="9.8" lengthAdjust="spacing" textLength="93.8" x="420.707" y="671.0143">orgtype_id: INT &#171;FK&#187;</text><text fill="#000000" font-family="sans-serif" font-size="9.8" lengthAdjust="spacing" textLength="85.4" x="420.707" y="684.049">super_id: INT &#171;FK&#187;</text></g><!--class test_points--><g id="elem_test_points"><rect codeLine="122" fill="#F1F1F1" height="70.3391" id="test_points" rx="1.75" ry="1.75" style="stroke:#181818;stroke-width:0.3499999999999999;" width="172.9" x="181.307" y="262.5"/><text fill="#000000" font-family="sans-serif" font-size="9.8" lengthAdjust="spacing" textLength="48.3" x="243.607" y="276.5752">test_points</text><line style="stroke:#181818;stroke-width:0.3499999999999999;" x1="182.007" x2="353.507" y1="282.5348" y2="282.5348"/><ellipse cx="189.007" cy="292.9021" fill="#000000" rx="2.1" ry="2.1" style="stroke:#000000;stroke-width:0.6999999999999998;"/><text fill="#000000" font-family="sans-serif" font-size="9.8" font-weight="bold" lengthAdjust="spacing" textLength="39.9" x="198.107" y="295.91">point_id</text><text fill="#000000" font-family="sans-serif" font-size="9.8" lengthAdjust="spacing" textLength="109.2" x="240.807" y="295.91">: INT &#171;PK&#187;, &#171;generated&#187;</text><line style="stroke:#181818;stroke-width:0.6999999999999998;" x1="182.007" x2="353.507" y1="301.1695" y2="301.1695"/><ellipse cx="189.007" cy="311.5369" fill="#000000" rx="2.1" ry="2.1" style="stroke:#000000;stroke-width:0.6999999999999998;"/><text fill="#000000" font-family="sans-serif" font-size="9.8" lengthAdjust="spacing" textLength="103.6" x="195.307" y="314.5447">point_name: VARCHAR</text><text fill="#000000" font-family="sans-serif" font-size="9.8" lengthAdjust="spacing" textLength="115.5" x="195.307" y="327.5795">location_terr_id: INT &#171;FK&#187;</text></g><!--class examinees_data--><g id="elem_examinees_data"><rect codeLine="139" fill="#F1F1F1" height="165.3477" id="examinees_data" rx="1.75" ry="1.75" style="stroke:#181818;stroke-width:0.3499999999999999;" width="195.3" x="467.607" y="380.1"/><text fill="#000000" font-family="sans-serif" font-size="9.8" lengthAdjust="spacing" textLength="72.1" x="529.207" y="394.1752">examinees_data</text><line style="stroke:#181818;stroke-width:0.3499999999999999;" x1="468.307" x2="662.207" y1="400.1348" y2="400.1348"/><ellipse cx="475.307" cy="410.5021" fill="#000000" rx="2.1" ry="2.1" style="stroke:#000000;stroke-width:0.6999999999999998;"/><text fill="#000000" font-family="sans-serif" font-size="9.8" font-weight="bold" lengthAdjust="spacing" textLength="62.3" x="484.407" y="413.51">examinee_id</text><text fill="#000000" font-family="sans-serif" font-size="9.8" lengthAdjust="spacing" textLength="109.2" x="549.507" y="413.51">: INT &#171;PK&#187;, &#171;generated&#187;</text><line style="stroke:#181818;stroke-width:0.6999999999999998;" x1="468.307" x2="662.207" y1="418.7695" y2="418.7695"/><text fill="#000000" font-family="sans-serif" font-size="9.8" lengthAdjust="spacing" textLength="35" x="471.807" y="432.1447">sex: sex</text><text fill="#000000" font-family="sans-serif" font-size="9.8" lengthAdjust="spacing" textLength="96.6" x="471.807" y="445.1795">birth_year: SMALLINT</text><line style="stroke:#181818;stroke-width:0.6999999999999998;stroke-dasharray:1.0,2.0;" x1="468.307" x2="662.207" y1="450.4391" y2="450.4391"/><text fill="#000000" font-family="sans-serif" font-size="9.8" lengthAdjust="spacing" textLength="124.6" x="471.807" y="463.8143">residence_terr_id: INT &#171;FK&#187;</text><text fill="#000000" font-family="sans-serif" font-size="9.8" lengthAdjust="spacing" textLength="123.2" x="471.807" y="476.849">residence_terrtype: terrtype</text><line style="stroke:#181818;stroke-width:0.6999999999999998;stroke-dasharray:1.0,2.0;" x1="468.307" x2="662.207" y1="482.1086" y2="482.1086"/><text fill="#000000" font-family="sans-serif" font-size="9.8" lengthAdjust="spacing" textLength="109.9" x="471.807" y="495.4838">edu_profile_id: INT &#171;FK&#187;</text><text fill="#000000" font-family="sans-serif" font-size="9.8" lengthAdjust="spacing" textLength="101.5" x="471.807" y="508.5186">edu_lang_id: INT &#171;FK&#187;</text><line style="stroke:#181818;stroke-width:0.6999999999999998;stroke-dasharray:1.0,2.0;" x1="468.307" x2="662.207" y1="513.7781" y2="513.7781"/><text fill="#000000" font-family="sans-serif" font-size="9.8" lengthAdjust="spacing" textLength="97.3" x="471.807" y="527.1533">edu_org_id: INT &#171;FK&#187;</text><text fill="#000000" font-family="sans-serif" font-size="9.8" lengthAdjust="spacing" textLength="103.6" x="471.807" y="540.1881">edu_status: edu_status</text></g><!--class records--><g id="elem_records"><rect codeLine="162" fill="#F1F1F1" height="70.3391" id="records" rx="1.75" ry="1.75" style="stroke:#181818;stroke-width:0.3499999999999999;" width="148.4" x="498.757" y="262.5"/><text fill="#000000" font-family="sans-serif" font-size="9.8" lengthAdjust="spacing" textLength="33.6" x="556.157" y="276.5752">records</text><line style="stroke:#181818;stroke-width:0.3499999999999999;" x1="499.457" x2="646.457" y1="282.5348" y2="282.5348"/><ellipse cx="506.457" cy="292.9021" fill="#000000" rx="2.1" ry="2.1" style="stroke:#000000;stroke-width:0.6999999999999998;"/><text fill="#000000" font-family="sans-serif" font-size="9.8" font-weight="bold" lengthAdjust="spacing" textLength="47.6" x="515.557" y="295.91">record_id</text><text fill="#000000" font-family="sans-serif" font-size="9.8" lengthAdjust="spacing" textLength="77" x="565.957" y="295.91">: CHAR(36) &#171;PK&#187;</text><line style="stroke:#181818;stroke-width:0.6999999999999998;" x1="499.457" x2="646.457" y1="301.1695" y2="301.1695"/><ellipse cx="506.457" cy="311.5369" fill="#000000" rx="2.1" ry="2.1" style="stroke:#000000;stroke-width:0.6999999999999998;"/><text fill="#000000" font-family="sans-serif" font-size="9.8" lengthAdjust="spacing" textLength="105.7" x="512.757" y="314.5447">record_year: SMALLINT</text><text fill="#000000" font-family="sans-serif" font-size="9.8" lengthAdjust="spacing" textLength="102.2" x="512.757" y="327.5795">examinee_id: INT &#171;FK&#187;</text></g><!--class subjects--><g id="elem_subjects"><rect codeLine="178" fill="#F1F1F1" height="70.3391" id="subjects" rx="1.75" ry="1.75" style="stroke:#181818;stroke-width:0.3499999999999999;" width="191.1" x="686.007" y="262.5"/><text fill="#000000" font-family="sans-serif" font-size="9.8" lengthAdjust="spacing" textLength="36.4" x="763.357" y="276.5752">subjects</text><line style="stroke:#181818;stroke-width:0.3499999999999999;" x1="686.707" x2="876.407" y1="282.5348" y2="282.5348"/><ellipse cx="693.707" cy="292.9021" fill="#000000" rx="2.1" ry="2.1" style="stroke:#000000;stroke-width:0.6999999999999998;"/><text fill="#000000" font-family="sans-serif" font-size="9.8" font-weight="bold" lengthAdjust="spacing" textLength="51.1" x="702.807" y="295.91">subject_id</text><text fill="#000000" font-family="sans-serif" font-size="9.8" lengthAdjust="spacing" textLength="109.2" x="756.707" y="295.91">: INT &#171;PK&#187;, &#171;generated&#187;</text><line style="stroke:#181818;stroke-width:0.6999999999999998;" x1="686.707" x2="876.407" y1="301.1695" y2="301.1695"/><ellipse cx="693.707" cy="311.5369" fill="#000000" rx="2.1" ry="2.1" style="stroke:#000000;stroke-width:0.6999999999999998;"/><text fill="#000000" font-family="sans-serif" font-size="9.8" lengthAdjust="spacing" textLength="172.9" x="700.007" y="314.5447">subject_code: VARCHAR(64) &#171;unique&#187;</text><text fill="#000000" font-family="sans-serif" font-size="9.8" lengthAdjust="spacing" textLength="113.4" x="700.007" y="327.5795">subject_name: VARCHAR</text></g><!--class test_passes--><g id="elem_test_passes"><rect codeLine="189" fill="#F1F1F1" height="210.052" id="test_passes" rx="1.75" ry="1.75" style="stroke:#181818;stroke-width:0.3499999999999999;" width="170.8" x="719.257" y="4.9"/><text fill="#000000" font-family="sans-serif" font-size="9.8" lengthAdjust="spacing" textLength="53.2" x="778.057" y="18.9752">test_passes</text><line style="stroke:#181818;stroke-width:0.3499999999999999;" x1="719.957" x2="889.357" y1="24.9348" y2="24.9348"/><ellipse cx="726.957" cy="35.3021" fill="#000000" rx="2.1" ry="2.1" style="stroke:#000000;stroke-width:0.6999999999999998;"/><text fill="#000000" font-family="sans-serif" font-size="9.8" font-weight="bold" lengthAdjust="spacing" textLength="37.8" x="736.057" y="38.31">pass_id</text><text fill="#000000" font-family="sans-serif" font-size="9.8" lengthAdjust="spacing" textLength="109.2" x="776.657" y="38.31">: INT &#171;PK&#187;, &#171;generated&#187;</text><line style="stroke:#181818;stroke-width:0.6999999999999998;" x1="719.957" x2="889.357" y1="43.5695" y2="43.5695"/><ellipse cx="726.957" cy="53.9369" fill="#000000" rx="2.1" ry="2.1" style="stroke:#000000;stroke-width:0.6999999999999998;"/><text fill="#000000" font-family="sans-serif" font-size="9.8" lengthAdjust="spacing" textLength="118.3" x="733.257" y="56.9447">record_id: CHAT(36) &#171;FK&#187;</text><ellipse cx="726.957" cy="66.9717" fill="#000000" rx="2.1" ry="2.1" style="stroke:#000000;stroke-width:0.6999999999999998;"/><text fill="#000000" font-family="sans-serif" font-size="9.8" lengthAdjust="spacing" textLength="91.7" x="733.257" y="69.9795">subject_id: INT &#171;FK&#187;</text><line style="stroke:#181818;stroke-width:0.6999999999999998;stroke-dasharray:1.0,2.0;" x1="719.957" x2="889.357" y1="75.2391" y2="75.2391"/><ellipse cx="726.957" cy="85.6064" fill="#000000" rx="2.1" ry="2.1" style="stroke:#000000;stroke-width:0.6999999999999998;"/><text fill="#000000" font-family="sans-serif" font-size="9.8" lengthAdjust="spacing" textLength="102.2" x="733.257" y="88.6143">test_status: test_status</text><text fill="#000000" font-family="sans-serif" font-size="9.8" lengthAdjust="spacing" textLength="112" x="733.257" y="101.649">super_pass_id: INT &#171;FK&#187;</text><line style="stroke:#181818;stroke-width:0.6999999999999998;stroke-dasharray:1.0,2.0;" x1="719.957" x2="889.357" y1="106.9086" y2="106.9086"/><text fill="#000000" font-family="sans-serif" font-size="9.8" lengthAdjust="spacing" textLength="103.6" x="723.457" y="120.2838">test_point_id: INT &#171;FK&#187;</text><line style="stroke:#181818;stroke-width:0.6999999999999998;stroke-dasharray:1.0,2.0;" x1="719.957" x2="889.357" y1="125.5434" y2="125.5434"/><text fill="#000000" font-family="sans-serif" font-size="9.8" lengthAdjust="spacing" textLength="100.8" x="723.457" y="138.9186">test_lang_id: INT &#171;FK&#187;</text><text fill="#000000" font-family="sans-serif" font-size="9.8" lengthAdjust="spacing" textLength="105.7" x="723.457" y="151.9533">adapt_scale: SMALLINT</text><text fill="#000000" font-family="sans-serif" font-size="9.8" lengthAdjust="spacing" textLength="91" x="723.457" y="164.9881">dpa_level: dpa_level</text><line style="stroke:#181818;stroke-width:0.6999999999999998;stroke-dasharray:1.0,2.0;" x1="719.957" x2="889.357" y1="170.2477" y2="170.2477"/><text fill="#000000" font-family="sans-serif" font-size="9.8" lengthAdjust="spacing" textLength="76.3" x="723.457" y="183.6229">score: SMALLINT</text><text fill="#000000" font-family="sans-serif" font-size="9.8" lengthAdjust="spacing" textLength="93.1" x="723.457" y="196.6576">score_12: SMALLINT</text><text fill="#000000" font-family="sans-serif" font-size="9.8" lengthAdjust="spacing" textLength="118.3" x="723.457" y="209.6924">score_100: DECIMAL(4, 1)</text></g><polygon fill="none" points="910.357,289.1,918.757,297.5,910.357,305.9,901.957,297.5,910.357,289.1" style="stroke:none;stroke-width:0.3499999999999999;"/><!--link areas to regions--><g id="link_areas_regions"><path codeLine="47" d="M308.357,901.6 C344.764,901.6 291.353,937.2964 254.092,965.3804 " fill="none" id="areas-regions" style="stroke:#181818;stroke-width:0.6999999999999998;"/><line style="stroke:#181818;stroke-width:0.6999999999999998;" x1="301.357" x2="295.757" y1="901.6" y2="905.8"/><line style="stroke:#181818;stroke-width:0.6999999999999998;" x1="301.357" x2="295.757" y1="901.6" y2="897.4"/><line style="stroke:#181818;stroke-width:0.6999999999999998;" x1="301.357" x2="295.757" y1="901.6" y2="901.6"/><ellipse cx="305.557" cy="901.6" fill="none" rx="2.8" ry="2.8" style="stroke:#181818;stroke-width:0.6999999999999998;"/><line style="stroke:#181818;stroke-width:0.6999999999999998;" x1="253.5413" x2="250.1707" y1="969.3017" y2="964.8297"/><line style="stroke:#181818;stroke-width:0.6999999999999998;" x1="255.2183" x2="251.8477" y1="968.0377" y2="963.5657"/><line style="stroke:#181818;stroke-width:0.6999999999999998;" x1="254.092" x2="249.62" y1="965.3804" y2="968.751"/></g><!--link territories to areas--><g id="link_territories_areas"><path codeLine="58" d="M306.257,784 C341.593,784 296.9334,817.3782 261.7864,847.3102 " fill="none" id="territories-areas" style="stroke:#181818;stroke-width:0.6999999999999998;"/><line style="stroke:#181818;stroke-width:0.6999999999999998;" x1="299.257" x2="293.657" y1="784" y2="788.2"/><line style="stroke:#181818;stroke-width:0.6999999999999998;" x1="299.257" x2="293.657" y1="784" y2="779.8"/><line style="stroke:#181818;stroke-width:0.6999999999999998;" x1="299.257" x2="293.657" y1="784" y2="784"/><ellipse cx="303.457" cy="784" fill="none" rx="2.8" ry="2.8" style="stroke:#181818;stroke-width:0.6999999999999998;"/><line style="stroke:#181818;stroke-width:0.6999999999999998;" x1="261.4701" x2="257.8393" y1="851.2573" y2="846.9939"/><line style="stroke:#181818;stroke-width:0.6999999999999998;" x1="263.0689" x2="259.4381" y1="849.8957" y2="845.6323"/><line style="stroke:#181818;stroke-width:0.6999999999999998;" x1="261.7864" x2="257.523" y1="847.3102" y2="850.941"/></g><!--link edu_orgs to territories--><g id="link_edu_orgs_territories"><path codeLine="113" d="M393.757,653.45 C361.998,653.45 314.3699,692.934 267.1829,727.262 " fill="none" id="edu_orgs-territories" style="stroke:#181818;stroke-width:0.6999999999999998;"/><line style="stroke:#181818;stroke-width:0.6999999999999998;" x1="400.757" x2="406.357" y1="653.45" y2="649.25"/><line style="stroke:#181818;stroke-width:0.6999999999999998;" x1="400.757" x2="406.357" y1="653.45" y2="657.65"/><line style="stroke:#181818;stroke-width:0.6999999999999998;" x1="400.757" x2="406.357" y1="653.45" y2="653.45"/><ellipse cx="396.557" cy="653.45" fill="none" rx="2.8" ry="2.8" style="stroke:#181818;stroke-width:0.6999999999999998;"/><line style="stroke:#181818;stroke-width:0.6999999999999998;" x1="264.9186" x2="258.692" y1="728.9092" y2="733.439"/><ellipse cx="264.9186" cy="728.9092" fill="none" rx="2.8" ry="2.8" style="stroke:#181818;stroke-width:0.6999999999999998;"/><line style="stroke:#181818;stroke-width:0.6999999999999998;" x1="262.6034" x2="259.309" y1="734.056" y2="729.5276"/></g><!--link edu_orgs to edu_orgtypes--><g id="link_edu_orgs_edu_orgtypes"><path codeLine="114" d="M393.757,666.75 C363.342,666.75 382.5252,701.8273 392.8642,732.6133 " fill="none" id="edu_orgs-edu_orgtypes" style="stroke:#181818;stroke-width:0.6999999999999998;"/><line style="stroke:#181818;stroke-width:0.6999999999999998;" x1="400.757" x2="406.357" y1="666.75" y2="662.55"/><line style="stroke:#181818;stroke-width:0.6999999999999998;" x1="400.757" x2="406.357" y1="666.75" y2="670.95"/><line style="stroke:#181818;stroke-width:0.6999999999999998;" x1="400.757" x2="406.357" y1="666.75" y2="666.75"/><ellipse cx="396.557" cy="666.75" fill="none" rx="2.8" ry="2.8" style="stroke:#181818;stroke-width:0.6999999999999998;"/><line style="stroke:#181818;stroke-width:0.6999999999999998;" x1="393.7556" x2="396.207" y1="735.2676" y2="742.567"/><ellipse cx="393.7556" cy="735.2676" fill="none" rx="2.8" ry="2.8" style="stroke:#181818;stroke-width:0.6999999999999998;"/><line style="stroke:#181818;stroke-width:0.6999999999999998;" x1="397.9699" x2="392.6613" y1="739.0213" y2="740.8041"/></g><!--link edu_orgs to edu_supers--><g id="link_edu_orgs_edu_supers"><path codeLine="115" d="M584.857,680.05 C611.744,680.05 604.7096,705.4067 605.3116,732.0207 " fill="none" id="edu_orgs-edu_supers" style="stroke:#181818;stroke-width:0.6999999999999998;"/><line style="stroke:#181818;stroke-width:0.6999999999999998;" x1="577.857" x2="572.257" y1="680.05" y2="684.25"/><line style="stroke:#181818;stroke-width:0.6999999999999998;" x1="577.857" x2="572.257" y1="680.05" y2="675.85"/><line style="stroke:#181818;stroke-width:0.6999999999999998;" x1="577.857" x2="572.257" y1="680.05" y2="680.05"/><ellipse cx="582.057" cy="680.05" fill="none" rx="2.8" ry="2.8" style="stroke:#181818;stroke-width:0.6999999999999998;"/><line style="stroke:#181818;stroke-width:0.6999999999999998;" x1="605.3749" x2="605.549" y1="734.82" y2="742.518"/><ellipse cx="605.3749" cy="734.82" fill="none" rx="2.8" ry="2.8" style="stroke:#181818;stroke-width:0.6999999999999998;"/><line style="stroke:#181818;stroke-width:0.6999999999999998;" x1="608.285" x2="602.6864" y1="739.6554" y2="739.782"/></g><!--link test_points to territories--><g id="link_test_points_territories"><path codeLine="130" d="M168.357,322.7 C4.2,322.7 137.7916,616.4271 187.4006,723.9331 " fill="none" id="test_points-territories" style="stroke:#181818;stroke-width:0.6999999999999998;"/><line style="stroke:#181818;stroke-width:0.6999999999999998;" x1="175.357" x2="180.957" y1="322.7" y2="318.5"/><line style="stroke:#181818;stroke-width:0.6999999999999998;" x1="175.357" x2="180.957" y1="322.7" y2="326.9"/><line style="stroke:#181818;stroke-width:0.6999999999999998;" x1="175.357" x2="180.957" y1="322.7" y2="322.7"/><ellipse cx="171.157" cy="322.7" fill="none" rx="2.8" ry="2.8" style="stroke:#181818;stroke-width:0.6999999999999998;"/><line style="stroke:#181818;stroke-width:0.6999999999999998;" x1="188.5737" x2="191.8" y1="726.4755" y2="733.467"/><ellipse cx="188.5737" cy="726.4755" fill="none" rx="2.8" ry="2.8" style="stroke:#181818;stroke-width:0.6999999999999998;"/><line style="stroke:#181818;stroke-width:0.6999999999999998;" x1="193.1692" x2="188.0844" y1="729.7514" y2="732.0978"/></g><!--link examinees_data to territories--><g id="link_examinees_data_territories"><path codeLine="156" d="M454.657,459.2 C365.687,459.2 368.242,516.271 311.157,584.5 C272.524,630.665 246.0054,684.1753 228.8694,723.7813 " fill="none" id="examinees_data-territories" style="stroke:#181818;stroke-width:0.6999999999999998;"/><line style="stroke:#181818;stroke-width:0.6999999999999998;" x1="461.657" x2="467.257" y1="459.2" y2="455"/><line style="stroke:#181818;stroke-width:0.6999999999999998;" x1="461.657" x2="467.257" y1="459.2" y2="463.4"/><line style="stroke:#181818;stroke-width:0.6999999999999998;" x1="461.657" x2="467.257" y1="459.2" y2="459.2"/><ellipse cx="457.457" cy="459.2" fill="none" rx="2.8" ry="2.8" style="stroke:#181818;stroke-width:0.6999999999999998;"/><line style="stroke:#181818;stroke-width:0.6999999999999998;" x1="227.7576" x2="224.7" y1="726.3511" y2="733.418"/><ellipse cx="227.7576" cy="726.3511" fill="none" rx="2.8" ry="2.8" style="stroke:#181818;stroke-width:0.6999999999999998;"/><line style="stroke:#181818;stroke-width:0.6999999999999998;" x1="228.3816" x2="223.2421" y1="731.9601" y2="729.7364"/></g><!--link examinees_data to edu_profiles--><g id="link_examinees_data_edu_profiles"><path codeLine="157" d="M676.557,490.7 C741.412,490.7 766.7522,559.0814 785.0852,602.3694 " fill="none" id="examinees_data-edu_profiles" style="stroke:#181818;stroke-width:0.6999999999999998;"/><line style="stroke:#181818;stroke-width:0.6999999999999998;" x1="669.557" x2="663.957" y1="490.7" y2="494.9"/><line style="stroke:#181818;stroke-width:0.6999999999999998;" x1="669.557" x2="663.957" y1="490.7" y2="486.5"/><line style="stroke:#181818;stroke-width:0.6999999999999998;" x1="669.557" x2="663.957" y1="490.7" y2="490.7"/><ellipse cx="673.757" cy="490.7" fill="none" rx="2.8" ry="2.8" style="stroke:#181818;stroke-width:0.6999999999999998;"/><line style="stroke:#181818;stroke-width:0.6999999999999998;" x1="786.1772" x2="789.18" y1="604.9477" y2="612.038"/><ellipse cx="786.1772" cy="604.9477" fill="none" rx="2.8" ry="2.8" style="stroke:#181818;stroke-width:0.6999999999999998;"/><line style="stroke:#181818;stroke-width:0.6999999999999998;" x1="790.6664" x2="785.5098" y1="608.3678" y2="610.5516"/></g><!--link examinees_data to edu_langs--><g id="link_examinees_data_edu_langs"><path codeLine="158" d="M676.557,504 C790.223,504 889.2906,566.4828 949.9316,606.3408 " fill="none" id="examinees_data-edu_langs" style="stroke:#181818;stroke-width:0.6999999999999998;"/><line style="stroke:#181818;stroke-width:0.6999999999999998;" x1="669.557" x2="663.957" y1="504" y2="508.2"/><line style="stroke:#181818;stroke-width:0.6999999999999998;" x1="669.557" x2="663.957" y1="504" y2="499.8"/><line style="stroke:#181818;stroke-width:0.6999999999999998;" x1="669.557" x2="663.957" y1="504" y2="504"/><ellipse cx="673.757" cy="504" fill="none" rx="2.8" ry="2.8" style="stroke:#181818;stroke-width:0.6999999999999998;"/><line style="stroke:#181818;stroke-width:0.6999999999999998;" x1="952.2715" x2="958.706" y1="607.8787" y2="612.108"/><ellipse cx="952.2715" cy="607.8787" fill="none" rx="2.8" ry="2.8" style="stroke:#181818;stroke-width:0.6999999999999998;"/><line style="stroke:#181818;stroke-width:0.6999999999999998;" x1="957.9041" x2="954.8283" y1="608.2303" y2="612.9099"/></g><!--link examinees_data to edu_orgs--><g id="link_examinees_data_edu_orgs"><path codeLine="159" d="M454.657,522.2 C425.397,522.2 443.0804,548.1506 457.5144,580.2106 " fill="none" id="examinees_data-edu_orgs" style="stroke:#181818;stroke-width:0.6999999999999998;"/><line style="stroke:#181818;stroke-width:0.6999999999999998;" x1="461.657" x2="467.257" y1="522.2" y2="518"/><line style="stroke:#181818;stroke-width:0.6999999999999998;" x1="461.657" x2="467.257" y1="522.2" y2="526.4"/><line style="stroke:#181818;stroke-width:0.6999999999999998;" x1="461.657" x2="467.257" y1="522.2" y2="522.2"/><ellipse cx="457.457" cy="522.2" fill="none" rx="2.8" ry="2.8" style="stroke:#181818;stroke-width:0.6999999999999998;"/><line style="stroke:#181818;stroke-width:0.6999999999999998;" x1="458.6639" x2="461.825" y1="582.7638" y2="589.785"/><ellipse cx="458.6639" cy="582.7638" fill="none" rx="2.8" ry="2.8" style="stroke:#181818;stroke-width:0.6999999999999998;"/><line style="stroke:#181818;stroke-width:0.6999999999999998;" x1="463.2287" x2="458.1223" y1="586.0823" y2="588.3813"/></g><!--link records to examinees_data--><g id="link_records_examinees_data"><path codeLine="170" d="M485.457,322.7 C456.12,322.7 470.9696,339.2423 489.7156,368.3273 " fill="none" id="records-examinees_data" style="stroke:#181818;stroke-width:0.6999999999999998;"/><line style="stroke:#181818;stroke-width:0.6999999999999998;" x1="492.457" x2="498.057" y1="322.7" y2="318.5"/><line style="stroke:#181818;stroke-width:0.6999999999999998;" x1="492.457" x2="498.057" y1="322.7" y2="326.9"/><line style="stroke:#181818;stroke-width:0.6999999999999998;" x1="492.457" x2="498.057" y1="322.7" y2="322.7"/><ellipse cx="488.257" cy="322.7" fill="none" rx="2.8" ry="2.8" style="stroke:#181818;stroke-width:0.6999999999999998;"/><line style="stroke:#181818;stroke-width:0.6999999999999998;" x1="491.2325" x2="495.404" y1="370.6808" y2="377.153"/><ellipse cx="491.2325" cy="370.6808" fill="none" rx="2.8" ry="2.8" style="stroke:#181818;stroke-width:0.6999999999999998;"/><line style="stroke:#181818;stroke-width:0.6999999999999998;" x1="496.2406" x2="491.5336" y1="373.2826" y2="376.3164"/></g><!--link test_passes to records--><g id="link_test_passes_records"><path codeLine="211" d="M705.957,52.5 C610.659,52.5 589.7973,185.825 578.6533,254.166 " fill="none" id="test_passes-records" style="stroke:#181818;stroke-width:0.6999999999999998;"/><line style="stroke:#181818;stroke-width:0.6999999999999998;" x1="712.957" x2="718.557" y1="52.5" y2="48.3"/><line style="stroke:#181818;stroke-width:0.6999999999999998;" x1="712.957" x2="718.557" y1="52.5" y2="56.7"/><line style="stroke:#181818;stroke-width:0.6999999999999998;" x1="712.957" x2="718.557" y1="52.5" y2="52.5"/><ellipse cx="708.757" cy="52.5" fill="none" rx="2.8" ry="2.8" style="stroke:#181818;stroke-width:0.6999999999999998;"/><line style="stroke:#181818;stroke-width:0.6999999999999998;" x1="580.9661" x2="575.4391" y1="257.3801" y2="256.4789"/><line style="stroke:#181818;stroke-width:0.6999999999999998;" x1="581.3041" x2="575.7771" y1="255.3075" y2="254.4062"/><line style="stroke:#181818;stroke-width:0.6999999999999998;" x1="578.6533" x2="577.752" y1="254.166" y2="259.693"/></g><!--link test_passes to subjects--><g id="link_test_passes_subjects"><path codeLine="212" d="M705.957,65.1 C638.134,65.1 696.899,153.664 719.257,217.7 C724.955,234.038 731.9598,245.2875 742.8238,258.1885 " fill="none" id="test_passes-subjects" style="stroke:#181818;stroke-width:0.6999999999999998;"/><line style="stroke:#181818;stroke-width:0.6999999999999998;" x1="712.957" x2="718.557" y1="65.1" y2="60.9"/><line style="stroke:#181818;stroke-width:0.6999999999999998;" x1="712.957" x2="718.557" y1="65.1" y2="69.3"/><line style="stroke:#181818;stroke-width:0.6999999999999998;" x1="712.957" x2="718.557" y1="65.1" y2="65.1"/><ellipse cx="708.757" cy="65.1" fill="none" rx="2.8" ry="2.8" style="stroke:#181818;stroke-width:0.6999999999999998;"/><line style="stroke:#181818;stroke-width:0.6999999999999998;" x1="746.7692" x2="742.4857" y1="258.5267" y2="262.1338"/><line style="stroke:#181818;stroke-width:0.6999999999999998;" x1="745.4165" x2="741.133" y1="256.9204" y2="260.5275"/><line style="stroke:#181818;stroke-width:0.6999999999999998;" x1="742.8238" x2="746.431" y1="258.1885" y2="262.472"/></g><!--reverse link test_passes to _--><g id="link_test_passes__"><path codeLine="215" d="M903.357,97.3 C983.227,97.3 923.041,257.635 912.338,290.829 " fill="none" id="test_passes-backto-_" style="stroke:#181818;stroke-width:0.6999999999999998;"/><line style="stroke:#181818;stroke-width:0.6999999999999998;" x1="896.357" x2="890.757" y1="97.3" y2="101.5"/><line style="stroke:#181818;stroke-width:0.6999999999999998;" x1="896.357" x2="890.757" y1="97.3" y2="93.1"/><line style="stroke:#181818;stroke-width:0.6999999999999998;" x1="896.357" x2="890.757" y1="97.3" y2="97.3"/><ellipse cx="900.557" cy="97.3" fill="none" rx="2.8" ry="2.8" style="stroke:#181818;stroke-width:0.6999999999999998;"/></g><!--reverse link test_passes to _--><g id="link_test_passes__"><path codeLine="216" d="M901.257,33.6 C1008.245,33.6 925.869,252.567 912.408,291.06 " fill="none" id="test_passes-backto-_-1" style="stroke:#181818;stroke-width:0.6999999999999998;"/><line style="stroke:#181818;stroke-width:0.6999999999999998;" x1="898.457" x2="890.757" y1="33.6" y2="33.6"/><ellipse cx="898.457" cy="33.6" fill="none" rx="2.8" ry="2.8" style="stroke:#181818;stroke-width:0.6999999999999998;"/><line style="stroke:#181818;stroke-width:0.6999999999999998;" x1="893.557" x2="893.557" y1="36.4" y2="30.8"/></g><!--link test_passes to test_points--><g id="link_test_passes_test_points"><path codeLine="218" d="M705.957,115.5 C552.846,115.5 411.6491,200.9144 329.9731,253.9534 " fill="none" id="test_passes-test_points" style="stroke:#181818;stroke-width:0.6999999999999998;"/><line style="stroke:#181818;stroke-width:0.6999999999999998;" x1="712.957" x2="718.557" y1="115.5" y2="111.3"/><line style="stroke:#181818;stroke-width:0.6999999999999998;" x1="712.957" x2="718.557" y1="115.5" y2="119.7"/><line style="stroke:#181818;stroke-width:0.6999999999999998;" x1="712.957" x2="718.557" y1="115.5" y2="115.5"/><ellipse cx="708.757" cy="115.5" fill="none" rx="2.8" ry="2.8" style="stroke:#181818;stroke-width:0.6999999999999998;"/><line style="stroke:#181818;stroke-width:0.6999999999999998;" x1="327.6248" x2="321.167" y1="255.4784" y2="259.672"/><ellipse cx="327.6248" cy="255.4784" fill="none" rx="2.8" ry="2.8" style="stroke:#181818;stroke-width:0.6999999999999998;"/><line style="stroke:#181818;stroke-width:0.6999999999999998;" x1="325.0403" x2="321.9904" y1="260.4954" y2="255.7987"/></g><!--link test_passes to edu_langs--><g id="link_test_passes_edu_langs"><path codeLine="219" d="M903.357,134.4 C1100.302,134.4 1028.3623,495.5026 1006.7533,601.7696 " fill="none" id="test_passes-edu_langs" style="stroke:#181818;stroke-width:0.6999999999999998;"/><line style="stroke:#181818;stroke-width:0.6999999999999998;" x1="896.357" x2="890.757" y1="134.4" y2="138.6"/><line style="stroke:#181818;stroke-width:0.6999999999999998;" x1="896.357" x2="890.757" y1="134.4" y2="130.2"/><line style="stroke:#181818;stroke-width:0.6999999999999998;" x1="896.357" x2="890.757" y1="134.4" y2="134.4"/><ellipse cx="900.557" cy="134.4" fill="none" rx="2.8" ry="2.8" style="stroke:#181818;stroke-width:0.6999999999999998;"/><line style="stroke:#181818;stroke-width:0.6999999999999998;" x1="1006.1954" x2="1004.661" y1="604.5134" y2="612.059"/><ellipse cx="1006.1954" cy="604.5134" fill="none" rx="2.8" ry="2.8" style="stroke:#181818;stroke-width:0.6999999999999998;"/><line style="stroke:#181818;stroke-width:0.6999999999999998;" x1="1007.9628" x2="1002.4751" y1="609.8731" y2="608.7572"/></g><!--SRC=[fLVTRzis47_NNt7hmsm7SJ-seW-2OI1BEwn8kmMfrrU3bYus5rdII2g8s-H_tnr5IPHDkO5d9BR4- -3lFdaSmNGAxwLOAx45ZSR8VAsZQCJBzFTLwafaBO4VgfB96vaYO6wasO5CYbn7TYMHAicG6VvUPpimIYPt48_f_REuGnXT94RUampjk2toT0IOuPRKQ93vlTHobI6O0YfDFnlSWg0jZQeIKoc2GVlac9X2HVfEvgLWp7iQVnF9tLeLLPvU5bcX2878DN7I7aU42fMYEXHetN1PQLDiOIiILK2AjpANHhBHBGTxKHYn4enSi1cbnYejfix0w2ShXh1WuZWNMpm7ybw64qWoeJNm4jlxmgw-20Zud4TtLd8hr0xkS4TnMcyo-ky0N5-DXJ5g0hFL7FW9PgzMyyWfN6oaIgTaFyNLXbUYP-L5kYNJAIA2_8VJ1IebAHoIOfDAZb-HHwPO8yLEmVSe0lgCGE6Q2VnI6rClw8bT-cw_-NF6s6hQKgQJ63x-kO3PxFfgFZ-dtpNcI1jZEf-t8jEf9-r4sJqnVBsukVpZuiQId_f8WA8hF3Zy6WR3bFy3HQQDvEzN7kkPHJ0Cr0AAurO9F1NJwUEZqweRQvWDZ8l1pZEeMQFO1SrY-abcENyC66NL3XhbWOfZfwWnp1eSFKLTfdr8gqHmZL5goVosK5lx1g9wa9aKh2MGQPd8rvLOKnqb2PPa23UJ5N8_IKaDOAFrbK7D7Srp6j6MB1zs6LDESfaLF9AIw1bQgk9MPcHP7rMp70JcY2TXQsH3y8Q2KQYroEKt-wfjQ09nm441ioiFx2CEknpELQASP9mLVARZVOoWgn8LDJCw3CQZ-YGOJVOWMvumO4iw2N4jUGBaGt-6eH7X960iTmYBFrbH0rgwbXBi32w-G-J6OGT4PtTZKXplxsRRH_7ejvOzYMxhXjTFk3tc1eZFMWUwLmsBkdL0MSXwSA4I8ABnbwEc4MkphFacKHsCkcXvwJcXS64ugxK6Wd0q08JQG_0y_paxhzqCSJW3t612unBy3FWWQ1f0X9J6Zuunq0qQHg-H-odho7h9YeA9sx2SaBqQ7sB-QXTMKfdDSeT2nV3byyMdJwIk9RvysJugr3JHvWaUpUq-5sTL3CrJIAlNpuTKDWVH47rFMrtKWvgq4QRIiVVSgwsUxtdas3DwiCJs1Fjs-HNKEzH2OivMNyQUmuC2jSLx1TrEHN-LcFD0JA7XHEsDdRmmD7OohSulBgxnh-ycBic69ZmhC917Ni8EjJM7XapgU5kRUbRtki-NQlKFtO6e_hYqeUGBmP7QiqpQoTJtDSyZZZ1qa5dYYKTPBPiKQTUmnk_Uia-hNFvROUy0g9cFd7pjLMVHDthNizEkXvjCtGU9FZH64Ud4ITybZisRXSkRlScuS-MFAlhCMj9MhVUoTruwm3_Ir_N_vp8VQpqY5INXIKI6WQHFIx7Cy1wpk7iCRQF9Oo5vkxvyyyimwVNh6Dv_kFn8vF7RStWpwMT96-Js2gmmgmVFZInrr3d49WAtEnUyxePbY_AGiujWmzhKpi7U6hFRAT_vUPWSsMZn-gW7nahDvh0CRUN5r-uMucheZnsz3o8fylGPBkWbIDVjswbXG6AmQLCm_WC0]--></g></svg>